<svg xmlns="http://www.w3.org/2000/svg" xmlns:xlink="http://www.w3.org/1999/xlink" width="125" height="125" viewBox="0 0 125 125">
  <defs>
    <filter id="Rectangle_2154" x="0" y="0" width="125" height="125" filterUnits="userSpaceOnUse">
      <feOffset dy="3" input="SourceAlpha"/>
      <feGaussianBlur stdDeviation="15" result="blur"/>
      <feFlood flood-opacity="0.051"/>
      <feComposite operator="in" in2="blur"/>
      <feComposite in="SourceGraphic"/>
    </filter>
  </defs>
  <g id="Group_10951" data-name="Group 10951" transform="translate(-1239 -3553)">
    <g id="Group_9614" data-name="Group 9614" transform="translate(1284 3595)">
      <g transform="matrix(1, 0, 0, 1, -45, -42)" filter="url(#Rectangle_2154)">
        <rect id="Rectangle_2154-2" data-name="Rectangle 2154" width="35" height="35" rx="17.5" transform="translate(45 42)" fill="#fff"/>
      </g>
    </g>
    <path id="layer1" d="M18.725,8.808a6.758,6.758,0,0,1-2.136.614A4.131,4.131,0,0,0,18.2,7.316a6.222,6.222,0,0,1-2.4.849,4.032,4.032,0,0,0-2.809-1.17,3.858,3.858,0,0,0-3.862,3.862,3.972,3.972,0,0,0,.088.849A11.18,11.18,0,0,1,1.024,7.7a3.864,3.864,0,0,0,1.17,5.091,2.315,2.315,0,0,1-1.668-.41,3.71,3.71,0,0,0,2.984,3.774,3.1,3.1,0,0,1-1.609.117A3.663,3.663,0,0,0,5.354,18.9,6.371,6.371,0,0,1,0,20.512a11.652,11.652,0,0,0,6.056,1.7A10.767,10.767,0,0,0,16.882,10.915v-.146A6.689,6.689,0,0,0,18.725,8.808Z" transform="translate(1292 3598.006)" fill="#183a6c"/>
  </g>
</svg>
